<svg width="82" height="84" viewBox="0 0 82 84" fill="none" xmlns="http://www.w3.org/2000/svg">
<g clip-path="url(#clip0_5_91)">
<path d="M41 0.945312C43.2091 0.945313 44.9999 2.73624 45 4.94531V12.5811C58.0565 14.3566 68.3901 24.6977 70.1631 37.7637H77.793C80.0019 37.764 81.793 39.5547 81.793 41.7637C81.793 43.9726 80.0019 45.7634 77.793 45.7637H70.1621C68.3891 58.8296 58.0564 69.1708 45 70.9463V79.3184C44.9999 81.5274 43.2091 83.3184 41 83.3184C38.7909 83.3184 37.0001 81.5274 37 79.3184V70.9463C23.9436 69.1709 13.61 58.8296 11.8369 45.7637H4.20801C1.99888 45.7637 0.208026 43.9728 0.208008 41.7637C0.208008 39.5545 1.99887 37.7637 4.20801 37.7637H11.8369C13.6098 24.6975 23.9434 14.3554 37 12.5801V4.94531C37.0001 2.73624 38.7909 0.945313 41 0.945312ZM45 26.2998C45 28.5089 43.2091 30.2998 41 30.2998C38.7909 30.2998 37 28.5089 37 26.2998V20.6836C28.3714 22.3143 21.5675 29.1211 19.9395 37.7637H25.5479C27.7567 37.764 29.5479 39.5548 29.5479 41.7637C29.5478 43.9726 27.7567 45.7633 25.5479 45.7637H19.9395C21.5676 54.406 28.3716 61.212 37 62.8428V57.9639C37 55.7547 38.7909 53.9639 41 53.9639C43.2091 53.9639 45 55.7547 45 57.9639V62.8428C53.6283 61.2118 60.4323 54.4059 62.0605 45.7637H56.4531C54.244 45.7637 52.4531 43.9728 52.4531 41.7637C52.4531 39.5545 54.244 37.7637 56.4531 37.7637H62.0605C60.4324 29.1212 53.6286 22.3144 45 20.6836V26.2998Z" fill="#FF4444"/>
</g>
<defs>
<clipPath id="clip0_5_91">
<rect width="82" height="84" fill="white"/>
</clipPath>
</defs>
</svg>
