<svg width="64" height="64" viewBox="0 0 64 64" fill="none" xmlns="http://www.w3.org/2000/svg">
<g clip-path="url(#clip0_2_2)">
<circle cx="32" cy="32" r="29.5" fill="black" stroke="white" stroke-width="5"/>
<path d="M20.75 52.0833V43.7604C19.4771 43.2056 18.3592 42.463 17.3964 41.5328C16.4335 40.6026 15.6175 39.55 14.9484 38.375C14.2793 37.2 13.7734 35.9434 13.4307 34.6052C13.088 33.267 12.9167 31.9125 12.9167 30.5417C12.9167 25.3847 14.7444 21.158 18.4 17.8615C22.0556 14.5649 26.7556 12.9167 32.5 12.9167C38.2445 12.9167 42.9445 14.5649 46.6 17.8615C50.2556 21.158 52.0833 25.3847 52.0833 30.5417C52.0833 31.9125 51.912 33.267 51.5693 34.6052C51.2266 35.9434 50.7207 37.2 50.0516 38.375C49.3825 39.55 48.5665 40.6026 47.6037 41.5328C46.6408 42.463 45.5229 43.2056 44.25 43.7604V52.0833H20.75ZM24.6667 48.1667H26.625V44.25H30.5417V48.1667H34.4583V44.25H38.375V48.1667H40.3333V41.2146C41.5736 40.9208 42.6752 40.4313 43.638 39.7458C44.6009 39.0604 45.4168 38.2445 46.0859 37.2979C46.755 36.3514 47.2691 35.307 47.6281 34.1646C47.9872 33.0222 48.1667 31.8146 48.1667 30.5417C48.1667 26.4618 46.7224 23.1571 43.8339 20.6276C40.9453 18.0981 37.1674 16.8333 32.5 16.8333C27.8326 16.8333 24.0547 18.0981 21.1662 20.6276C18.2776 23.1571 16.8333 26.4618 16.8333 30.5417C16.8333 31.8146 17.0129 33.0222 17.3719 34.1646C17.7309 35.307 18.245 36.3514 18.9141 37.2979C19.5832 38.2445 20.4073 39.0604 21.3865 39.7458C22.3656 40.4313 23.459 40.9208 24.6667 41.2146V48.1667ZM29.5625 38.375H35.4375L32.5 32.5L29.5625 38.375ZM25.6458 34.4583C26.7229 34.4583 27.645 34.0748 28.412 33.3078C29.179 32.5408 29.5625 31.6188 29.5625 30.5417C29.5625 29.4646 29.179 28.5425 28.412 27.7755C27.645 27.0085 26.7229 26.625 25.6458 26.625C24.5688 26.625 23.6467 27.0085 22.8797 27.7755C22.1127 28.5425 21.7292 29.4646 21.7292 30.5417C21.7292 31.6188 22.1127 32.5408 22.8797 33.3078C23.6467 34.0748 24.5688 34.4583 25.6458 34.4583ZM39.3542 34.4583C40.4313 34.4583 41.3533 34.0748 42.1203 33.3078C42.8873 32.5408 43.2708 31.6188 43.2708 30.5417C43.2708 29.4646 42.8873 28.5425 42.1203 27.7755C41.3533 27.0085 40.4313 26.625 39.3542 26.625C38.2771 26.625 37.355 27.0085 36.588 27.7755C35.821 28.5425 35.4375 29.4646 35.4375 30.5417C35.4375 31.6188 35.821 32.5408 36.588 33.3078C37.355 34.0748 38.2771 34.4583 39.3542 34.4583Z" fill="white"/>
</g>
<defs>
<clipPath id="clip0_2_2">
<rect width="64" height="64" fill="white"/>
</clipPath>
</defs>
</svg>
