<svg width="456" height="456" viewBox="0 0 456 456" fill="none" xmlns="http://www.w3.org/2000/svg">
<path d="M173 287L190 291.533V312.937L165 306.234V284.866L173 287ZM143 279L164 284.6V305.966L140 299.532V278.199L143 279ZM139 277.933V299.265L115 292.831V271.533L139 277.933ZM173 262L190 266.533V290.498L173.258 286.034L165 283.832V259.866L173 262ZM143 254L164 259.6V283.565L143.258 278.034L140 277.165V253.199L143 254ZM139 252.933V276.898L115 270.498V246.533L139 252.933ZM173 237L190 241.533V265.498L173.258 261.034L165 258.832V234.866L173 237ZM143 229L164 234.6V258.565L143.258 253.034L140 252.165V228.199L143 229ZM139 227.933V251.898L115 245.498V221.533L139 227.933ZM173 212L190 216.533V240.498L173.258 236.034L165 233.832V209.866L173 212ZM143 204L164 209.6V233.565L143.258 228.034L140 227.165V203.199L143 204ZM139 202.933V226.898L115 220.498V196.533L139 202.933ZM173 187L190 191.533V215.498L173.258 211.034L165 208.832V184.866L173 187ZM143 179L164 184.6V208.565L143.258 203.034L140 202.165V178.199L143 179ZM139 177.933V201.898L115 195.498V171.533L139 177.933ZM190 166.105V190.498L173.258 186.034L165 183.832V159.403L190 166.105ZM164 159.135V183.565L143.258 178.034L140 177.165V152.701L164 159.135ZM139 152.434V176.898L115 170.498V146L139 152.434Z" fill="#41784D"/>
<path d="M331 287L348 291.533V312.937L323 306.234V284.866L331 287ZM301 279L322 284.6V305.966L298 299.532V278.199L301 279ZM297 277.933V299.265L273 292.831V271.533L297 277.933ZM331 262L348 266.533V290.498L331.258 286.034L323 283.832V259.866L331 262ZM301 254L322 259.6V283.565L301.258 278.034L298 277.165V253.199L301 254ZM297 252.933V276.898L273 270.498V246.533L297 252.933ZM331 237L348 241.533V265.498L331.258 261.034L323 258.832V234.866L331 237ZM301 229L322 234.6V258.565L301.258 253.034L298 252.165V228.199L301 229ZM297 227.933V251.898L273 245.498V221.533L297 227.933ZM331 212L348 216.533V240.498L331.258 236.034L323 233.832V209.866L331 212ZM301 204L322 209.6V233.565L301.258 228.034L298 227.165V203.199L301 204ZM297 202.933V226.898L273 220.498V196.533L297 202.933ZM331 187L348 191.533V215.498L331.258 211.034L323 208.832V184.866L331 187ZM301 179L322 184.6V208.565L301.258 203.034L298 202.165V178.199L301 179ZM297 177.933V201.898L273 195.498V171.533L297 177.933ZM348 166.105V190.498L331.258 186.034L323 183.832V159.403L348 166.105ZM322 159.135V183.565L301.258 178.034L298 177.165V152.701L322 159.135ZM297 152.434V176.898L273 170.498V146L297 152.434Z" fill="#295132"/>
<path d="M211 287L194 291.533V312.937L219 306.234V284.866L211 287ZM241 279L220 284.6V305.966L244 299.532V278.199L241 279ZM245 277.933V299.265L269 292.831V271.533L245 277.933ZM211 262L194 266.533V290.498L210.742 286.034L219 283.832V259.866L211 262ZM241 254L220 259.6V283.565L240.742 278.034L244 277.165V253.199L241 254ZM245 252.933V276.898L269 270.498V246.533L245 252.933ZM211 237L194 241.533V265.498L210.742 261.034L219 258.832V234.866L211 237ZM241 229L220 234.6V258.565L240.742 253.034L244 252.165V228.199L241 229ZM245 227.933V251.898L269 245.498V221.533L245 227.933ZM211 212L194 216.533V240.498L210.742 236.034L219 233.832V209.866L211 212ZM241 204L220 209.6V233.565L240.742 228.034L244 227.165V203.199L241 204ZM245 202.933V226.898L269 220.498V196.533L245 202.933ZM211 187L194 191.533V215.498L210.742 211.034L219 208.832V184.866L211 187ZM241 179L220 184.6V208.565L240.742 203.034L244 202.165V178.199L241 179ZM245 177.933V201.898L269 195.498V171.533L245 177.933ZM194 166.105V190.498L210.742 186.034L219 183.832V159.403L194 166.105ZM220 159.135V183.565L240.742 178.034L244 177.165V152.701L220 159.135ZM245 152.434V176.898L269 170.498V146L245 152.434Z" fill="#2A743A"/>
<g clip-path="url(#clip0_5_8)">
<path d="M285 211.945L285 233.3" stroke="#FF4444" stroke-width="8" stroke-linecap="round"/>
<path d="M285 264.964L285 286.318" stroke="#FF4444" stroke-width="8" stroke-linecap="round"/>
<path d="M300.453 248.764H321.792" stroke="#FF4444" stroke-width="8" stroke-linecap="round"/>
<path d="M248.208 248.764H269.547" stroke="#FF4444" stroke-width="8" stroke-linecap="round"/>
<path d="M285 223.309C299.044 223.309 310.434 234.703 310.434 248.763C310.434 262.824 299.044 274.218 285 274.218C270.956 274.218 259.566 262.824 259.566 248.763C259.566 234.703 270.956 223.309 285 223.309Z" stroke="#FF4444" stroke-width="8"/>
</g>
<defs>
<clipPath id="clip0_5_8">
<rect width="82" height="84" fill="white" transform="translate(244 207)"/>
</clipPath>
</defs>
</svg>
