<svg width="456" height="456" viewBox="0 0 456 456" fill="none" xmlns="http://www.w3.org/2000/svg">
<path d="M173 287L190 291.533V312.937L165 306.234V284.866L173 287ZM143 279L164 284.6V305.966L140 299.532V278.199L143 279ZM139 277.933V299.265L115 292.831V271.533L139 277.933ZM173 262L190 266.533V290.498L173.258 286.034L165 283.832V259.866L173 262ZM143 254L164 259.6V283.565L143.258 278.034L140 277.165V253.199L143 254ZM139 252.933V276.898L115 270.498V246.533L139 252.933ZM173 237L190 241.533V265.498L173.258 261.034L165 258.832V234.866L173 237ZM143 229L164 234.6V258.565L143.258 253.034L140 252.165V228.199L143 229ZM139 227.933V251.898L115 245.498V221.533L139 227.933ZM173 212L190 216.533V240.498L173.258 236.034L165 233.832V209.866L173 212ZM143 204L164 209.6V233.565L143.258 228.034L140 227.165V203.199L143 204ZM139 202.933V226.898L115 220.498V196.533L139 202.933ZM173 187L190 191.533V215.498L173.258 211.034L165 208.832V184.866L173 187ZM143 179L164 184.6V208.565L143.258 203.034L140 202.165V178.199L143 179ZM139 177.933V201.898L115 195.498V171.533L139 177.933ZM190 166.105V190.498L173.258 186.034L165 183.832V159.403L190 166.105ZM164 159.135V183.565L143.258 178.034L140 177.165V152.701L164 159.135ZM139 152.434V176.898L115 170.498V146L139 152.434Z" fill="#41784D"/>
<path d="M331 287L348 291.533V312.937L323 306.234V284.866L331 287ZM301 279L322 284.6V305.966L298 299.532V278.199L301 279ZM297 277.933V299.265L273 292.831V271.533L297 277.933ZM331 262L348 266.533V290.498L331.258 286.034L323 283.832V259.866L331 262ZM301 254L322 259.6V283.565L301.258 278.034L298 277.165V253.199L301 254ZM297 252.933V276.898L273 270.498V246.533L297 252.933ZM331 237L348 241.533V265.498L331.258 261.034L323 258.832V234.866L331 237ZM301 229L322 234.6V258.565L301.258 253.034L298 252.165V228.199L301 229ZM297 227.933V251.898L273 245.498V221.533L297 227.933ZM331 212L348 216.533V240.498L331.258 236.034L323 233.832V209.866L331 212ZM301 204L322 209.6V233.565L301.258 228.034L298 227.165V203.199L301 204ZM297 202.933V226.898L273 220.498V196.533L297 202.933ZM331 187L348 191.533V215.498L331.258 211.034L323 208.832V184.866L331 187ZM301 179L322 184.6V208.565L301.258 203.034L298 202.165V178.199L301 179ZM297 177.933V201.898L273 195.498V171.533L297 177.933ZM348 166.105V190.498L331.258 186.034L323 183.832V159.403L348 166.105ZM322 159.135V183.565L301.258 178.034L298 177.165V152.701L322 159.135ZM297 152.434V176.898L273 170.498V146L297 152.434Z" fill="#295132"/>
<path d="M211 287L194 291.533V312.937L219 306.234V284.866L211 287ZM241 279L220 284.6V305.966L244 299.532V278.199L241 279ZM245 277.933V299.265L269 292.831V271.533L245 277.933ZM211 262L194 266.533V290.498L210.742 286.034L219 283.832V259.866L211 262ZM241 254L220 259.6V283.565L240.742 278.034L244 277.165V253.199L241 254ZM245 252.933V276.898L269 270.498V246.533L245 252.933ZM211 237L194 241.533V265.498L210.742 261.034L219 258.832V234.866L211 237ZM241 229L220 234.6V258.565L240.742 253.034L244 252.165V228.199L241 229ZM245 227.933V251.898L269 245.498V221.533L245 227.933ZM211 212L194 216.533V240.498L210.742 236.034L219 233.832V209.866L211 212ZM241 204L220 209.6V233.565L240.742 228.034L244 227.165V203.199L241 204ZM245 202.933V226.898L269 220.498V196.533L245 202.933ZM211 187L194 191.533V215.498L210.742 211.034L219 208.832V184.866L211 187ZM241 179L220 184.6V208.565L240.742 203.034L244 202.165V178.199L241 179ZM245 177.933V201.898L269 195.498V171.533L245 177.933ZM194 166.105V190.498L210.742 186.034L219 183.832V159.403L194 166.105ZM220 159.135V183.565L240.742 178.034L244 177.165V152.701L220 159.135ZM245 152.434V176.898L269 170.498V146L245 152.434Z" fill="#2A743A"/>
<g clip-path="url(#clip0_5_8)">
<path d="M285 211.945L285 233.3" stroke="#FF4444" stroke-width="8" stroke-linecap="round"/>
<path d="M285 264.964L285 286.318" stroke="#FF4444" stroke-width="8" stroke-linecap="round"/>
<path d="M300.453 248.764H321.792" stroke="#FF4444" stroke-width="8" stroke-linecap="round"/>
<path d="M248.208 248.764H269.547" stroke="#FF4444" stroke-width="8" stroke-linecap="round"/>
<path d="M285 223.309C299.044 223.309 310.434 234.703 310.434 248.763C310.434 262.824 299.044 274.218 285 274.218C270.956 274.218 259.566 262.824 259.566 248.763C259.566 234.703 270.956 223.309 285 223.309Z" stroke="#FF4444" stroke-width="8"/>
</g>
<path d="M129.078 113L135.484 90.8125H140.016L146.422 113H143.141L137.891 93.5H137.609L132.359 113H129.078ZM132.047 107.594V104.625H143.297V107.594H132.047ZM155.938 113V97.375H159.25V113H155.938ZM149.625 113V110.281H156.25V113H149.625ZM158.938 113V110.281H164.344V113H158.938ZM150.562 99.1562V96.4375H159.25V99.1562H150.562ZM157.484 93.8125C156.849 93.8125 156.302 93.5885 155.844 93.1406C155.396 92.6823 155.172 92.1354 155.172 91.5C155.172 90.8542 155.396 90.3073 155.844 89.8594C156.302 89.4115 156.849 89.1875 157.484 89.1875C158.13 89.1875 158.677 89.4115 159.125 89.8594C159.573 90.3073 159.797 90.8542 159.797 91.5C159.797 92.1354 159.573 92.6823 159.125 93.1406C158.677 93.5885 158.13 93.8125 157.484 93.8125ZM174.125 105.875L173.156 100.688H174.438C174.625 97.6458 176.146 96.125 179 96.125C180.708 96.125 181.948 96.6146 182.719 97.5938C183.49 98.5729 183.875 100.156 183.875 102.344H180.594C180.594 101.135 180.411 100.266 180.047 99.7344C179.693 99.2031 179.115 98.9375 178.312 98.9375C176.906 98.9375 175.854 99.5417 175.156 100.75C174.469 101.948 174.125 103.656 174.125 105.875ZM167.125 113V110.281H178.188V113H167.125ZM170.812 113V96.4375H173.5L174.125 101.188V113H170.812ZM167.75 99.1562V96.4375H173.281L173.594 99.1562H167.75ZM192.719 113.312C191.469 113.312 190.396 113.276 189.5 113.203C188.615 113.13 187.802 113.01 187.062 112.844L187.438 109.844C188.531 110.01 189.495 110.135 190.328 110.219C191.172 110.302 191.969 110.344 192.719 110.344C194.396 110.344 195.609 110.182 196.359 109.859C197.12 109.526 197.5 109 197.5 108.281C197.5 107.781 197.365 107.411 197.094 107.172C196.833 106.922 196.427 106.729 195.875 106.594L192.062 105.625C190.427 105.208 189.224 104.693 188.453 104.078C187.693 103.464 187.312 102.531 187.312 101.281C187.312 99.4688 188.005 98.1562 189.391 97.3438C190.786 96.5312 193.031 96.125 196.125 96.125C196.927 96.125 197.672 96.151 198.359 96.2031C199.057 96.2448 199.771 96.3229 200.5 96.4375L200.156 99.3125C199.312 99.2292 198.568 99.1719 197.922 99.1406C197.276 99.1094 196.646 99.0938 196.031 99.0938C194.177 99.0938 192.833 99.2552 192 99.5781C191.167 99.8906 190.75 100.406 190.75 101.125C190.75 101.604 190.922 101.953 191.266 102.172C191.609 102.38 192.135 102.573 192.844 102.75L195.906 103.5C197.646 103.917 198.917 104.474 199.719 105.172C200.531 105.87 200.938 106.885 200.938 108.219C200.938 110 200.286 111.297 198.984 112.109C197.682 112.911 195.594 113.312 192.719 113.312ZM212.75 113.312C210.458 113.312 208.677 112.562 207.406 111.062C206.135 109.562 205.5 107.448 205.5 104.719C205.5 101.979 206.135 99.8646 207.406 98.375C208.677 96.875 210.458 96.125 212.75 96.125C215.052 96.125 216.833 96.875 218.094 98.375C219.365 99.8646 220 101.979 220 104.719C220 107.448 219.365 109.562 218.094 111.062C216.833 112.562 215.052 113.312 212.75 113.312ZM212.75 110.344C213.969 110.344 214.906 109.854 215.562 108.875C216.229 107.896 216.562 106.51 216.562 104.719C216.562 102.917 216.229 101.531 215.562 100.562C214.906 99.5833 213.969 99.0938 212.75 99.0938C211.531 99.0938 210.589 99.5833 209.922 100.562C209.266 101.531 208.938 102.917 208.938 104.719C208.938 106.51 209.266 107.896 209.922 108.875C210.589 109.854 211.531 110.344 212.75 110.344ZM228.406 113V97.8438C228.406 92.1146 231.021 89.25 236.25 89.25C237.438 89.25 238.583 89.3542 239.688 89.5625L239.344 92.4375C238.688 92.3542 238.109 92.2969 237.609 92.2656C237.109 92.2344 236.625 92.2188 236.156 92.2188C233.198 92.2188 231.719 94.0417 231.719 97.6875V113H228.406ZM223.188 102.906V100.188H238.5V102.906H223.188ZM253.25 113.312C250.74 113.312 248.922 112.792 247.797 111.75C246.682 110.708 246.125 109.042 246.125 106.75V103.938H249.438V106.594C249.438 107.906 249.755 108.859 250.391 109.453C251.036 110.047 252.094 110.344 253.562 110.344C254.083 110.344 254.635 110.318 255.219 110.266C255.802 110.203 256.469 110.125 257.219 110.031L257.594 112.938C256.865 113.062 256.151 113.156 255.453 113.219C254.766 113.281 254.031 113.312 253.25 113.312ZM246.125 105.188V91.4375H249.438V105.188H246.125ZM241.969 99.1562V96.4375H256.969V99.1562H241.969ZM287.219 103.938L287.688 100.344H287.875L290.406 90.8125H292.625V94.75H291.719L289.188 103.938H287.219ZM280.375 113V90.8125H283.375V113H280.375ZM286.312 103.938L283.781 94.75H282.875V90.8125H285.094L287.625 100.344H287.75L288.062 103.938H286.312ZM292.125 113V90.8125H295.125V113H292.125ZM309.906 113.156L309.688 108.25L309.25 106.875V102.594C309.25 101.49 308.859 100.682 308.078 100.172C307.307 99.651 306.156 99.3698 304.625 99.3281L300.656 99.2188L300.969 96.2812L304.312 96.3281C307.052 96.3698 309.083 96.9635 310.406 98.1094C311.74 99.2448 312.406 100.906 312.406 103.094V110L315.219 110.344V113L309.906 113.156ZM304.062 113.312C302.333 113.312 300.995 112.896 300.047 112.062C299.099 111.229 298.625 110.052 298.625 108.531C298.625 106.781 299.276 105.438 300.578 104.5C301.891 103.562 303.74 103.094 306.125 103.094C307.115 103.094 307.995 103.156 308.766 103.281C309.547 103.396 310.24 103.573 310.844 103.812L310.156 106.062C309.458 105.906 308.776 105.818 308.109 105.797C307.443 105.766 306.76 105.75 306.062 105.75C303.188 105.75 301.75 106.625 301.75 108.375C301.75 109.104 301.995 109.667 302.484 110.062C302.984 110.458 303.688 110.656 304.594 110.656C305.625 110.656 306.484 110.479 307.172 110.125C307.87 109.771 308.391 109.318 308.734 108.766C309.078 108.214 309.25 107.646 309.25 107.062V105.25L310.219 109.5H308.906L309.438 109C309.438 109.958 309.214 110.76 308.766 111.406C308.328 112.042 307.708 112.521 306.906 112.844C306.104 113.156 305.156 113.312 304.062 113.312ZM318.5 120.188V96.4375H321.5L321.812 99.9375V120.188H318.5ZM326.516 113.312C325.245 113.312 324.219 113.021 323.438 112.438C322.667 111.854 322.229 111.042 322.125 110H320.688L321.812 105.281C321.812 106.99 322.146 108.286 322.812 109.172C323.49 110.057 324.479 110.5 325.781 110.5C327.115 110.5 328.125 110.026 328.812 109.078C329.5 108.13 329.844 106.729 329.844 104.875C329.844 102.917 329.5 101.438 328.812 100.438C328.125 99.4375 327.115 98.9375 325.781 98.9375C324.479 98.9375 323.49 99.3802 322.812 100.266C322.146 101.151 321.812 102.448 321.812 104.156L320.688 99.4375H321.969C322.115 98.3958 322.583 97.5833 323.375 97C324.177 96.4167 325.224 96.125 326.516 96.125C328.693 96.125 330.339 96.8646 331.453 98.3438C332.568 99.8229 333.125 102 333.125 104.875C333.125 107.646 332.568 109.745 331.453 111.172C330.339 112.599 328.693 113.312 326.516 113.312Z" fill="white"/>
<path d="M177.125 399V382.359H179.469V399H177.125ZM177.125 399V396.773H188.141V399H177.125ZM196.344 399.234C194.625 399.234 193.289 398.672 192.336 397.547C191.383 396.422 190.906 394.836 190.906 392.789C190.906 390.734 191.383 389.148 192.336 388.031C193.289 386.906 194.625 386.344 196.344 386.344C198.07 386.344 199.406 386.906 200.352 388.031C201.305 389.148 201.781 390.734 201.781 392.789C201.781 394.836 201.305 396.422 200.352 397.547C199.406 398.672 198.07 399.234 196.344 399.234ZM196.344 397.008C197.258 397.008 197.961 396.641 198.453 395.906C198.953 395.172 199.203 394.133 199.203 392.789C199.203 391.438 198.953 390.398 198.453 389.672C197.961 388.938 197.258 388.57 196.344 388.57C195.43 388.57 194.723 388.938 194.223 389.672C193.73 390.398 193.484 391.438 193.484 392.789C193.484 394.133 193.73 395.172 194.223 395.906C194.723 396.641 195.43 397.008 196.344 397.008ZM212.961 399.117L212.797 395.438L212.469 394.406V391.195C212.469 390.367 212.176 389.762 211.59 389.379C211.012 388.988 210.148 388.777 209 388.746L206.023 388.664L206.258 386.461L208.766 386.496C210.82 386.527 212.344 386.973 213.336 387.832C214.336 388.684 214.836 389.93 214.836 391.57V396.75L216.945 397.008V399L212.961 399.117ZM208.578 399.234C207.281 399.234 206.277 398.922 205.566 398.297C204.855 397.672 204.5 396.789 204.5 395.648C204.5 394.336 204.988 393.328 205.965 392.625C206.949 391.922 208.336 391.57 210.125 391.57C210.867 391.57 211.527 391.617 212.105 391.711C212.691 391.797 213.211 391.93 213.664 392.109L213.148 393.797C212.625 393.68 212.113 393.613 211.613 393.598C211.113 393.574 210.602 393.562 210.078 393.562C207.922 393.562 206.844 394.219 206.844 395.531C206.844 396.078 207.027 396.5 207.395 396.797C207.77 397.094 208.297 397.242 208.977 397.242C209.75 397.242 210.395 397.109 210.91 396.844C211.434 396.578 211.824 396.238 212.082 395.824C212.34 395.41 212.469 394.984 212.469 394.547V393.188L213.195 396.375H212.211L212.609 396C212.609 396.719 212.441 397.32 212.105 397.805C211.777 398.281 211.312 398.641 210.711 398.883C210.109 399.117 209.398 399.234 208.578 399.234ZM223.52 399.234C221.895 399.234 220.66 398.699 219.816 397.629C218.98 396.559 218.562 394.984 218.562 392.906C218.562 390.75 218.98 389.117 219.816 388.008C220.66 386.898 221.895 386.344 223.52 386.344C224.449 386.344 225.203 386.562 225.781 387C226.367 387.438 226.711 388.047 226.812 388.828H227.773L227.047 392.367C227.047 391.086 226.793 390.113 226.285 389.449C225.785 388.785 225.047 388.453 224.07 388.453C223.07 388.453 222.312 388.828 221.797 389.578C221.281 390.328 221.023 391.438 221.023 392.906C221.023 394.297 221.281 395.348 221.797 396.059C222.312 396.77 223.07 397.125 224.07 397.125C225.047 397.125 225.785 396.793 226.285 396.129C226.793 395.465 227.047 394.492 227.047 393.211L227.891 396.75H226.812C226.734 397.531 226.402 398.141 225.816 398.578C225.238 399.016 224.473 399.234 223.52 399.234ZM227.305 399.117L227.047 396.68V381.422H229.531V399L227.305 399.117ZM238.109 399V387.281H240.594V399H238.109ZM233.375 399V396.961H238.344V399H233.375ZM240.359 399V396.961H244.414V399H240.359ZM234.078 388.617V386.578H240.594V388.617H234.078ZM239.27 384.609C238.793 384.609 238.383 384.441 238.039 384.105C237.703 383.762 237.535 383.352 237.535 382.875C237.535 382.391 237.703 381.98 238.039 381.645C238.383 381.309 238.793 381.141 239.27 381.141C239.754 381.141 240.164 381.309 240.5 381.645C240.836 381.98 241.004 382.391 241.004 382.875C241.004 383.352 240.836 383.762 240.5 384.105C240.164 384.441 239.754 384.609 239.27 384.609ZM255.172 399V390.914C255.172 390.164 254.977 389.586 254.586 389.18C254.195 388.773 253.648 388.57 252.945 388.57C250.992 388.57 250.016 389.719 250.016 392.016L249.289 388.828H250.25C250.32 387.992 250.625 387.371 251.164 386.965C251.703 386.551 252.492 386.344 253.531 386.344C254.844 386.344 255.859 386.742 256.578 387.539C257.297 388.336 257.656 389.461 257.656 390.914V399H255.172ZM247.531 399V386.578H249.781L250.016 389.203V399H247.531ZM261.758 404.602L261.641 402.328L265.625 402.211C266.883 402.172 267.797 401.824 268.367 401.168C268.938 400.512 269.227 399.547 269.234 398.273V389.203L269.469 386.578H271.719V397.898C271.719 400.109 271.215 401.742 270.207 402.797C269.199 403.852 267.594 404.414 265.391 404.484L261.758 404.602ZM265.707 399.234C264.082 399.234 262.848 398.699 262.004 397.629C261.168 396.559 260.75 394.984 260.75 392.906C260.75 390.75 261.168 389.117 262.004 388.008C262.848 386.898 264.082 386.344 265.707 386.344C266.676 386.344 267.461 386.562 268.062 387C268.664 387.438 269.016 388.047 269.117 388.828H270.078L269.234 392.367C269.234 391.086 268.98 390.113 268.473 389.449C267.973 388.785 267.234 388.453 266.258 388.453C265.258 388.453 264.5 388.828 263.984 389.578C263.469 390.328 263.211 391.438 263.211 392.906C263.211 394.297 263.469 395.348 263.984 396.059C264.5 396.77 265.258 397.125 266.258 397.125C267.234 397.125 267.973 396.793 268.473 396.129C268.98 395.465 269.234 394.492 269.234 393.211L270.078 396.75H269C268.922 397.531 268.59 398.141 268.004 398.578C267.426 399.016 266.66 399.234 265.707 399.234ZM285.406 399.234C284.93 399.234 284.52 399.066 284.176 398.73C283.84 398.387 283.672 397.977 283.672 397.5C283.672 397.016 283.84 396.605 284.176 396.27C284.52 395.934 284.93 395.766 285.406 395.766C285.891 395.766 286.301 395.934 286.637 396.27C286.973 396.605 287.141 397.016 287.141 397.5C287.141 397.977 286.973 398.387 286.637 398.73C286.301 399.066 285.891 399.234 285.406 399.234ZM294.781 399.234C294.305 399.234 293.895 399.066 293.551 398.73C293.215 398.387 293.047 397.977 293.047 397.5C293.047 397.016 293.215 396.605 293.551 396.27C293.895 395.934 294.305 395.766 294.781 395.766C295.266 395.766 295.676 395.934 296.012 396.27C296.348 396.605 296.516 397.016 296.516 397.5C296.516 397.977 296.348 398.387 296.012 398.73C295.676 399.066 295.266 399.234 294.781 399.234ZM304.156 399.234C303.68 399.234 303.27 399.066 302.926 398.73C302.59 398.387 302.422 397.977 302.422 397.5C302.422 397.016 302.59 396.605 302.926 396.27C303.27 395.934 303.68 395.766 304.156 395.766C304.641 395.766 305.051 395.934 305.387 396.27C305.723 396.605 305.891 397.016 305.891 397.5C305.891 397.977 305.723 398.387 305.387 398.73C305.051 399.066 304.641 399.234 304.156 399.234Z" fill="white"/>
<defs>
<clipPath id="clip0_5_8">
<rect width="82" height="84" fill="white" transform="translate(244 207)"/>
</clipPath>
</defs>
</svg>
